<?xml version="1.0" encoding="UTF-8" standalone="no"?>
<!-- Created with Inkscape (http://www.inkscape.org/) -->

<svg
   width="608"
   height="608"
   viewBox="0 0 608 608"
   version="1.1"
   id="svg1"
   sodipodi:docname="Expense.svg"
   inkscape:version="1.3 (0e150ed6c4, 2023-07-21)"
   xmlns:inkscape="http://www.inkscape.org/namespaces/inkscape"
   xmlns:sodipodi="http://sodipodi.sourceforge.net/DTD/sodipodi-0.dtd"
   xmlns="http://www.w3.org/2000/svg"
   xmlns:svg="http://www.w3.org/2000/svg">
  <sodipodi:namedview
     id="namedview1"
     pagecolor="#ffffff"
     bordercolor="#000000"
     borderopacity="0"
     inkscape:showpageshadow="0"
     inkscape:pageopacity="0"
     inkscape:pagecheckerboard="1"
     inkscape:deskcolor="#d1d1d1"
     inkscape:document-units="px"
     inkscape:zoom="0.35355339"
     inkscape:cx="45.254834"
     inkscape:cy="813.1728"
     inkscape:window-width="1920"
     inkscape:window-height="991"
     inkscape:window-x="-9"
     inkscape:window-y="-9"
     inkscape:window-maximized="1"
     inkscape:current-layer="layer1" />
  <defs
     id="defs1">
    <rect
       x="173.94827"
       y="395.9798"
       width="270.11478"
       height="86.267029"
       id="rect9" />
    <inkscape:path-effect
       effect="fillet_chamfer"
       id="path-effect36"
       is_visible="true"
       lpeversion="1"
       nodesatellites_param="F,0,1,1,0,47.149545,0,1 @ F,0,0,1,0,47.149545,0,1 @ F,0,1,1,0,47.149545,0,1 @ F,0,1,1,0,47.149545,0,1"
       radius="0"
       unit="px"
       method="auto"
       mode="F"
       chamfer_steps="1"
       flexible="false"
       use_knot_distance="true"
       apply_no_radius="true"
       apply_with_radius="true"
       only_selected="false"
       hide_knots="false" />
    <inkscape:path-effect
       effect="fillet_chamfer"
       id="path-effect34"
       is_visible="true"
       lpeversion="1"
       nodesatellites_param="F,0,1,1,0,47.149545,0,1 @ F,0,0,1,0,47.149545,0,1 @ F,0,1,1,0,47.149545,0,1 @ F,0,1,1,0,47.149545,0,1"
       radius="0"
       unit="px"
       method="auto"
       mode="F"
       chamfer_steps="1"
       flexible="false"
       use_knot_distance="true"
       apply_no_radius="true"
       apply_with_radius="true"
       only_selected="false"
       hide_knots="false" />
    <inkscape:path-effect
       effect="fillet_chamfer"
       id="path-effect33"
       is_visible="true"
       lpeversion="1"
       nodesatellites_param="F,0,0,1,0,0,0,1 @ F,0,0,1,0,0,0,1 @ F,0,0,1,0,0,0,1 @ F,0,0,1,0,0,0,1"
       radius="0"
       unit="px"
       method="auto"
       mode="F"
       chamfer_steps="1"
       flexible="false"
       use_knot_distance="true"
       apply_no_radius="true"
       apply_with_radius="true"
       only_selected="false"
       hide_knots="false" />
    <inkscape:path-effect
       effect="fillet_chamfer"
       id="path-effect31"
       is_visible="true"
       lpeversion="1"
       nodesatellites_param="F,0,0,1,0,0,0,1 @ F,0,0,1,0,0,0,1 @ F,0,0,1,0,0,0,1 @ F,0,0,1,0,0,0,1 @ F,0,0,1,0,0,0,1 @ F,0,0,1,0,0,0,1"
       radius="0"
       unit="px"
       method="auto"
       mode="F"
       chamfer_steps="1"
       flexible="false"
       use_knot_distance="true"
       apply_no_radius="true"
       apply_with_radius="true"
       only_selected="false"
       hide_knots="false" />
    <inkscape:path-effect
       effect="fillet_chamfer"
       id="path-effect29"
       is_visible="true"
       lpeversion="1"
       nodesatellites_param="F,0,0,1,0,0,0,1 @ F,0,0,1,0,0,0,1 @ F,0,0,1,0,0,0,1 @ F,0,0,1,0,0,0,1 @ F,0,0,1,0,0,0,1 @ F,0,0,1,0,0,0,1"
       radius="0"
       unit="px"
       method="auto"
       mode="F"
       chamfer_steps="1"
       flexible="false"
       use_knot_distance="true"
       apply_no_radius="true"
       apply_with_radius="true"
       only_selected="false"
       hide_knots="false" />
    <inkscape:path-effect
       effect="fillet_chamfer"
       id="path-effect8"
       is_visible="true"
       lpeversion="1"
       nodesatellites_param="F,0,0,1,0,0,0,1 @ F,0,0,1,0,0,0,1 @ F,0,0,1,0,0,0,1 @ F,0,0,1,0,0,0,1 @ F,0,0,1,0,0,0,1 @ F,0,0,1,0,0,0,1 @ F,0,0,1,0,0,0,1 @ F,0,0,1,0,0,0,1 @ F,0,0,1,0,0,0,1 @ F,0,0,1,0,0,0,1 @ IF,0,0,1,0,0,0,1 | F,0,0,1,0,0,0,1 @ F,0,0,1,0,0,0,1 @ F,0,0,1,0,0,0,1 @ F,0,0,1,0,0.00019,0,1"
       radius="0"
       unit="px"
       method="auto"
       mode="F"
       chamfer_steps="1"
       flexible="false"
       use_knot_distance="true"
       apply_no_radius="true"
       apply_with_radius="true"
       only_selected="false"
       hide_knots="false" />
  </defs>
  <g
     inkscape:label="Layer 1"
     inkscape:groupmode="layer"
     id="layer1">
    <path
       id="rect57"
       style="fill:#000000;fill-opacity:1;stroke-width:2.03161"
       d="m 191.58008,-1.7890625 c -2.53901,0 -5.07792,0.92590237 -7.02344,2.77539062 L 143.32031,40.185547 c -2.87744,1.79433 -4.80078,4.964353 -4.80078,8.619141 v 8.595703 c 0,3.15014 1.44786,5.92302 3.68164,7.787109 0.46129,1.260499 1.17114,2.445016 2.14063,3.464844 l 39.62109,41.679686 c 3.69898,3.89103 9.65454,3.89103 13.35352,0 l 3.43554,-3.61133 c 3.69898,-3.89103 3.69898,-10.157792 0,-14.048825 l -23.85742,-25.09375 h 284.40625 c 5.63856,0 10.17969,-4.539177 10.17969,-10.177734 v -8.595703 c 0,-5.638558 -4.54113,-10.177735 -10.17969,-10.177735 H 180.2793 l 21.93554,-20.853515 c 3.89104,-3.698977 3.89104,-9.6545396 0,-13.3535161 L 198.60352,0.98632812 C 196.658,-0.86316013 194.11908,-1.7890625 191.58008,-1.7890625 Z M 53.29883,140.83789 c -8.37854,0 -15.12305,6.74451 -15.12305,15.12305 v 296.07812 c 0,8.37854 6.74451,15.12305 15.12305,15.12305 h 501.40234 c 8.37854,0 15.12305,-6.74451 15.12305,-15.12305 V 155.96094 c 0,-8.37854 -6.74451,-15.12305 -15.12305,-15.12305 z m 23.54883,25.66602 h 454.30468 c 7.06057,0 12.74414,5.68357 12.74414,12.74414 v 249.5039 c 0,7.06057 -5.68357,12.74414 -12.74414,12.74414 H 76.84766 c -7.06057,0 -12.74414,-5.68357 -12.74414,-12.74414 v -249.5039 c 0,-7.06057 5.68357,-12.74414 12.74414,-12.74414 z m 36.875,16.82031 c -2.53472,1.37152 -4.57596,2.42925 -6.1211,3.17578 -4.98262,2.30902 -8.45422,3.88151 -10.41601,4.71484 l 2.47461,8.75 c 0.7118,-0.27777 1.32682,-0.47808 1.84765,-0.59961 0.98958,-0.22569 1.6326,-0.36393 1.92774,-0.41601 0.13888,5.9722 0.22504,9.63412 0.25976,10.98828 0.13889,4.61805 0.19097,9.61003 0.15625,14.97461 h 11.58985 c 0.0868,-9.67011 0.17296,-16.76152 0.25976,-21.27539 0.24306,-9.04512 0.42535,-15.3392 0.54688,-18.88086 z m 378.83593,0 c -0.0868,9.67011 -0.17296,16.76151 -0.25976,21.27539 -0.24306,9.04511 -0.42535,15.3392 -0.54688,18.88086 l 2.52539,1.43164 c 2.53472,-1.37153 4.57402,-2.43122 6.11914,-3.17773 4.98263,-2.30903 8.45618,-3.87956 10.41797,-4.7129 l -2.47461,-8.75 c -0.7118,0.27778 -1.32877,0.47809 -1.84961,0.59961 -0.98957,0.2257 -1.63064,0.36394 -1.92578,0.41602 -0.13889,-5.9722 -0.22699,-9.63608 -0.26172,-10.99023 -0.13888,-4.61805 -0.19097,-9.6081 -0.15625,-14.97266 z M 302.6543,187.5 C 295.64334,187.5 290,193.14334 290,200.1543 v 9.79297 c -8.5378,0.94858 -16.28483,2.81325 -23.20508,5.63671 -10.4215,4.1686 -18.38417,10.17085 -23.88672,18.00782 -5.50255,7.83696 -8.2539,16.80066 -8.2539,26.88867 0,10.58824 2.58484,19.46673 7.7539,26.63672 5.25244,7.08662 12.29734,12.71421 21.13477,16.88281 7.34857,3.36523 16.22318,6.37225 26.45703,9.05859 v 57.03907 c -2.33122,-0.59063 -4.44185,-1.36222 -6.32227,-2.31836 -4.91894,-2.58453 -8.75458,-5.83543 -11.50585,-9.75391 -2.66791,-3.91848 -5.16754,-8.79677 -7.50196,-14.63281 -1.91755,-4.91895 -4.25263,-8.62775 -7.0039,-11.12891 -2.66791,-2.50116 -5.96043,-3.75195 -9.87891,-3.75195 -4.83558,0 -8.83772,1.62544 -12.00586,4.87695 -3.08476,3.16814 -4.62695,7.00377 -4.62695,11.50586 0,7.7536 2.58289,15.75594 7.75195,24.00977 5.25243,8.17045 12.04757,14.71582 20.38477,19.63476 8.55204,4.97353 18.80347,8.11345 30.70898,9.46875 v 9.83789 c 0,7.01096 5.64334,12.6543 12.6543,12.6543 h 2.6914 C 312.35666,420.5 318,414.85666 318,407.8457 v -9.86132 c 9.33199,-1.09288 17.74853,-3.30402 25.20508,-6.69336 11.0051,-5.00232 19.34242,-11.92234 25.01172,-20.75977 5.75266,-8.83743 8.6289,-18.8002 8.6289,-29.88867 0,-9.25429 -1.66707,-17.05045 -5.00195,-23.38672 -3.25151,-6.41964 -7.83645,-11.71421 -13.75586,-15.88281 -5.83604,-4.1686 -12.96419,-7.71089 -21.38477,-10.62891 -5.74735,-2.01157 -12.00488,-3.89607 -18.70312,-5.66992 v -46.81836 c 2.15498,0.86588 4.03328,1.9232 5.57227,3.21484 4.66883,3.83511 8.66902,9.21294 12.0039,16.13282 2.58453,4.83557 4.96124,8.33818 7.12891,10.50586 2.25104,2.08429 5.50193,3.125 9.7539,3.125 4.66884,0 8.5461,-1.75033 11.63086,-5.25196 3.16814,-3.58499 4.75196,-7.58714 4.75196,-12.00586 0,-4.83557 -1.2508,-9.79517 -3.75196,-14.88086 -2.50116,-5.08569 -6.45972,-9.92235 -11.8789,-14.50781 -5.41918,-4.66883 -12.25594,-8.37763 -20.50977,-11.12891 C 328.26152,211.9187 323.35046,210.81075 318,210.10742 V 200.1543 C 318,193.14334 312.35666,187.5 305.3457,187.5 Z M 290,236.73438 v 40.94531 c -3.2671,-1.05583 -6.50164,-2.44231 -9.69922,-4.19336 -3.50162,-1.91756 -6.25298,-4.211 -8.2539,-6.87891 -2.00093,-2.6679 -3,-5.83554 -3,-9.5039 0,-5.91942 2.91786,-10.96422 8.7539,-15.13282 3.44045,-2.4713 7.51956,-4.20138 12.19922,-5.23632 z m -180.1582,19.23828 c -7.01096,0 -12.65625,5.64335 -12.65625,12.65429 v 11.46094 c 0,7.01095 5.64529,12.6543 12.65625,12.6543 h 86.41211 c 7.01094,0 12.65429,-5.64335 12.65429,-12.6543 v -11.46094 c 0,-7.01094 -5.64335,-12.65429 -12.65429,-12.65429 z m 301.90429,0 c -7.01095,0 -12.65429,5.64335 -12.65429,12.65429 v 79.3418 c 0,7.01095 5.64334,12.65625 12.65429,12.65625 h 15.70313 c 7.01095,0 12.6543,-5.6453 12.6543,-12.65625 v -79.3418 c 0,-7.01094 -5.64335,-12.65429 -12.6543,-12.65429 z m 70.71094,0 c -7.01095,0 -12.6543,5.64335 -12.6543,12.65429 v 79.3418 c 0,7.01095 5.64335,12.65625 12.6543,12.65625 h 15.70117 c 7.01095,0 12.65625,-5.6453 12.65625,-12.65625 v -79.3418 c 0,-7.01094 -5.6453,-12.65429 -12.65625,-12.65429 z M 318,320.42969 c 0.72735,0.23441 1.52134,0.47205 2.19531,0.70312 5.91941,2.00093 10.71249,4.9188 14.38086,8.75391 3.75174,3.75174 5.62891,8.67166 5.62891,14.75781 0,7.67022 -3.46099,14.08875 -10.38086,19.25781 -3.41974,2.54395 -7.36143,4.45319 -11.82422,5.72461 z m -208.1582,3.42578 c -7.01096,0 -12.65625,5.64334 -12.65625,12.6543 v 11.45898 c 0,7.01095 5.64529,12.65625 12.65625,12.65625 h 86.41211 c 7.01094,0 12.65429,-5.6453 12.65429,-12.65625 v -11.45898 c 0,-7.01096 -5.64335,-12.6543 -12.65429,-12.6543 z M 97.99219,386.9707 c -0.0868,9.67012 -0.17296,16.76152 -0.25977,21.27539 -0.24305,9.04512 -0.42535,15.33921 -0.54687,18.88086 l 2.52539,1.43164 c 2.53471,-1.37151 4.57595,-2.4312 6.12109,-3.17773 4.98263,-2.30902 8.45421,-3.87956 10.41602,-4.71289 l -2.47461,-8.75 c -0.71181,0.27778 -1.32683,0.47808 -1.84766,0.59961 -0.98958,0.22569 -1.6326,0.36393 -1.92773,0.41601 -0.13889,-5.9722 -0.22505,-9.63607 -0.25977,-10.99023 -0.13889,-4.61805 -0.19097,-9.60808 -0.15625,-14.97266 z m 410.29492,0 c -2.53472,1.37153 -4.57401,2.42927 -6.11914,3.17578 -4.98263,2.30903 -8.45422,3.88152 -10.41602,4.71485 l 2.47266,8.75 c 0.7118,-0.27778 1.32878,-0.47808 1.84961,-0.59961 0.98958,-0.2257 1.63259,-0.36393 1.92773,-0.41602 0.13889,5.97222 0.22505,9.63413 0.25977,10.98828 0.13889,4.61805 0.19097,9.61005 0.15625,14.97461 h 11.58789 c 0.0868,-9.67011 0.17491,-16.76151 0.26172,-21.27539 0.24305,-9.04511 0.42534,-15.3392 0.54687,-18.88086 z m -89.92773,105.24024 c -2.41369,0 -4.8263,0.9744 -6.67579,2.91992 l -3.43554,3.61133 c -3.69898,3.89103 -3.69898,10.15584 0,14.04687 l 23.85547,25.09375 h -284.4043 c -5.63856,0 -10.17969,4.54113 -10.17969,10.17969 v 8.5957 c 0,5.63856 4.54113,10.17774 10.17969,10.17774 H 428.7207 l -21.93554,20.85351 c -3.89104,3.69898 -3.89104,9.65454 0,13.35352 l 3.61132,3.43359 c 3.89104,3.69898 10.15585,3.69898 14.04688,0 l 41.23633,-39.19922 c 2.87744,-1.79433 4.80078,-4.96435 4.80078,-8.61914 v -8.5957 c 0,-3.15014 -1.44786,-5.92302 -3.68164,-7.78711 -0.46127,-1.26102 -1.17078,-2.44659 -2.14063,-3.4668 l -39.62109,-41.67773 c -1.84949,-1.94552 -4.26405,-2.91992 -6.67773,-2.91992 z" />
    <text
       xml:space="preserve"
       style="fill:#000000;fill-opacity:1;stroke-width:1.7"
       x="731.22485"
       y="197.37956"
       id="text58"><tspan
         sodipodi:role="line"
         id="tspan58"
         x="731.22485"
         y="197.37956" /></text>
    <text
       xml:space="preserve"
       style="font-style:normal;font-variant:normal;font-weight:normal;font-stretch:normal;font-family:'Arial Rounded MT Bold';-inkscape-font-specification:'Arial Rounded MT Bold, ';fill:#000000;fill-opacity:1;stroke-width:1.7"
       x="682"
       y="251"
       id="text59"><tspan
         id="tspan59"
         x="682"
         y="251"
         sodipodi:role="line" /></text>
    <text
       xml:space="preserve"
       style="font-size:26.6667px;font-family:'Arial Rounded MT Bold';-inkscape-font-specification:'Arial Rounded MT Bold, ';fill:#000000;stroke-width:1.7"
       x="366.28131"
       y="398.80823"
       id="text4"><tspan
         sodipodi:role="line"
         id="tspan4"
         x="366.28131"
         y="398.80823" /></text>
    <text
       xml:space="preserve"
       style="font-size:53.3333px;font-family:'Arial Rounded MT Bold';-inkscape-font-specification:'Arial Rounded MT Bold, ';fill:#000000;stroke-width:1.7"
       x="335.16861"
       y="407.29352"
       id="text5"><tspan
         sodipodi:role="line"
         id="tspan5"
         x="335.16861"
         y="407.29352" /><tspan
         sodipodi:role="line"
         id="tspan6"
         x="335.16861"
         y="473.96014" /><tspan
         sodipodi:role="line"
         x="335.16861"
         y="540.62677"
         id="tspan7" /></text>
    <text
       xml:space="preserve"
       style="font-size:53.3333px;font-family:'Arial Rounded MT Bold';-inkscape-font-specification:'Arial Rounded MT Bold, ';fill:#000000;stroke-width:1.7"
       x="325.26913"
       y="429.92093"
       id="text8"><tspan
         sodipodi:role="line"
         id="tspan8"
         x="325.26913"
         y="429.92093" /></text>
    <text
       xml:space="preserve"
       id="text9"
       style="font-size:53.3333px;font-family:'Arial Rounded MT Bold';-inkscape-font-specification:'Arial Rounded MT Bold, ';white-space:pre;shape-inside:url(#rect9);display:inline;fill:#000000;stroke-width:1.7" />
  </g>
</svg>
