<?xml version="1.0" encoding="UTF-8" standalone="no"?>
<!-- Created with Inkscape (http://www.inkscape.org/) -->

<svg
   width="1080"
   height="608"
   viewBox="0 0 1080 608"
   version="1.1"
   id="svg1"
   sodipodi:docname="Expense.svg"
   inkscape:version="1.3 (0e150ed6c4, 2023-07-21)"
   xmlns:inkscape="http://www.inkscape.org/namespaces/inkscape"
   xmlns:sodipodi="http://sodipodi.sourceforge.net/DTD/sodipodi-0.dtd"
   xmlns="http://www.w3.org/2000/svg"
   xmlns:svg="http://www.w3.org/2000/svg">
  <sodipodi:namedview
     id="namedview1"
     pagecolor="#ffffff"
     bordercolor="#111111"
     borderopacity="1"
     inkscape:showpageshadow="0"
     inkscape:pageopacity="0"
     inkscape:pagecheckerboard="1"
     inkscape:deskcolor="#d1d1d1"
     inkscape:document-units="px"
     inkscape:zoom="0.35355339"
     inkscape:cx="48.083261"
     inkscape:cy="813.1728"
     inkscape:window-width="1920"
     inkscape:window-height="991"
     inkscape:window-x="-9"
     inkscape:window-y="-9"
     inkscape:window-maximized="1"
     inkscape:current-layer="layer1" />
  <defs
     id="defs1">
    <rect
       x="173.94827"
       y="395.9798"
       width="270.11479"
       height="86.267027"
       id="rect9" />
    <inkscape:path-effect
       effect="fillet_chamfer"
       id="path-effect36"
       is_visible="true"
       lpeversion="1"
       nodesatellites_param="F,0,1,1,0,47.149545,0,1 @ F,0,0,1,0,47.149545,0,1 @ F,0,1,1,0,47.149545,0,1 @ F,0,1,1,0,47.149545,0,1"
       radius="0"
       unit="px"
       method="auto"
       mode="F"
       chamfer_steps="1"
       flexible="false"
       use_knot_distance="true"
       apply_no_radius="true"
       apply_with_radius="true"
       only_selected="false"
       hide_knots="false" />
    <inkscape:path-effect
       effect="fillet_chamfer"
       id="path-effect34"
       is_visible="true"
       lpeversion="1"
       nodesatellites_param="F,0,1,1,0,47.149545,0,1 @ F,0,0,1,0,47.149545,0,1 @ F,0,1,1,0,47.149545,0,1 @ F,0,1,1,0,47.149545,0,1"
       radius="0"
       unit="px"
       method="auto"
       mode="F"
       chamfer_steps="1"
       flexible="false"
       use_knot_distance="true"
       apply_no_radius="true"
       apply_with_radius="true"
       only_selected="false"
       hide_knots="false" />
    <inkscape:path-effect
       effect="fillet_chamfer"
       id="path-effect33"
       is_visible="true"
       lpeversion="1"
       nodesatellites_param="F,0,0,1,0,0,0,1 @ F,0,0,1,0,0,0,1 @ F,0,0,1,0,0,0,1 @ F,0,0,1,0,0,0,1"
       radius="0"
       unit="px"
       method="auto"
       mode="F"
       chamfer_steps="1"
       flexible="false"
       use_knot_distance="true"
       apply_no_radius="true"
       apply_with_radius="true"
       only_selected="false"
       hide_knots="false" />
    <inkscape:path-effect
       effect="fillet_chamfer"
       id="path-effect31"
       is_visible="true"
       lpeversion="1"
       nodesatellites_param="F,0,0,1,0,0,0,1 @ F,0,0,1,0,0,0,1 @ F,0,0,1,0,0,0,1 @ F,0,0,1,0,0,0,1 @ F,0,0,1,0,0,0,1 @ F,0,0,1,0,0,0,1"
       radius="0"
       unit="px"
       method="auto"
       mode="F"
       chamfer_steps="1"
       flexible="false"
       use_knot_distance="true"
       apply_no_radius="true"
       apply_with_radius="true"
       only_selected="false"
       hide_knots="false" />
    <inkscape:path-effect
       effect="fillet_chamfer"
       id="path-effect29"
       is_visible="true"
       lpeversion="1"
       nodesatellites_param="F,0,0,1,0,0,0,1 @ F,0,0,1,0,0,0,1 @ F,0,0,1,0,0,0,1 @ F,0,0,1,0,0,0,1 @ F,0,0,1,0,0,0,1 @ F,0,0,1,0,0,0,1"
       radius="0"
       unit="px"
       method="auto"
       mode="F"
       chamfer_steps="1"
       flexible="false"
       use_knot_distance="true"
       apply_no_radius="true"
       apply_with_radius="true"
       only_selected="false"
       hide_knots="false" />
    <inkscape:path-effect
       effect="fillet_chamfer"
       id="path-effect8"
       is_visible="true"
       lpeversion="1"
       nodesatellites_param="F,0,0,1,0,0,0,1 @ F,0,0,1,0,0,0,1 @ F,0,0,1,0,0,0,1 @ F,0,0,1,0,0,0,1 @ F,0,0,1,0,0,0,1 @ F,0,0,1,0,0,0,1 @ F,0,0,1,0,0,0,1 @ F,0,0,1,0,0,0,1 @ F,0,0,1,0,0,0,1 @ F,0,0,1,0,0,0,1 @ IF,0,0,1,0,0,0,1 | F,0,0,1,0,0,0,1 @ F,0,0,1,0,0,0,1 @ F,0,0,1,0,0,0,1 @ F,0,0,1,0,0.00019,0,1"
       radius="0"
       unit="px"
       method="auto"
       mode="F"
       chamfer_steps="1"
       flexible="false"
       use_knot_distance="true"
       apply_no_radius="true"
       apply_with_radius="true"
       only_selected="false"
       hide_knots="false" />
  </defs>
  <g
     inkscape:label="Layer 1"
     inkscape:groupmode="layer"
     id="layer1">
    <path
       id="rect57"
       style="fill:#000000;fill-opacity:1;stroke-width:2.03161"
       d="M 427.58008 -1.7890625 C 425.04107 -1.7890625 422.50216 -0.86316013 420.55664 0.98632812 L 379.32031 40.185547 C 376.44287 41.979877 374.51953 45.1499 374.51953 48.804688 L 374.51953 57.400391 C 374.51953 60.550531 375.96739 63.323411 378.20117 65.1875 C 378.66246 66.447999 379.37231 67.632516 380.3418 68.652344 L 419.96289 110.33203 C 423.66187 114.22306 429.61743 114.22306 433.31641 110.33203 L 436.75195 106.7207 C 440.45093 102.82967 440.45093 96.562908 436.75195 92.671875 L 412.89453 67.578125 L 697.30078 67.578125 C 702.93934 67.578125 707.48047 63.038948 707.48047 57.400391 L 707.48047 48.804688 C 707.48047 43.16613 702.93934 38.626953 697.30078 38.626953 L 416.2793 38.626953 L 438.21484 17.773438 C 442.10588 14.074461 442.10588 8.1188984 438.21484 4.4199219 L 434.60352 0.98632812 C 432.658 -0.86316013 430.11908 -1.7890625 427.58008 -1.7890625 z M 289.29883 140.83789 C 280.92029 140.83789 274.17578 147.5824 274.17578 155.96094 L 274.17578 452.03906 C 274.17578 460.4176 280.92029 467.16211 289.29883 467.16211 L 790.70117 467.16211 C 799.07971 467.16211 805.82422 460.4176 805.82422 452.03906 L 805.82422 155.96094 C 805.82422 147.5824 799.07971 140.83789 790.70117 140.83789 L 289.29883 140.83789 z M 312.84766 166.50391 L 767.15234 166.50391 C 774.21291 166.50391 779.89648 172.18748 779.89648 179.24805 L 779.89648 428.75195 C 779.89648 435.81252 774.21291 441.49609 767.15234 441.49609 L 312.84766 441.49609 C 305.78709 441.49609 300.10352 435.81252 300.10352 428.75195 L 300.10352 179.24805 C 300.10352 172.18748 305.78709 166.50391 312.84766 166.50391 z M 349.72266 183.32422 C 347.18794 184.69574 345.1467 185.75347 343.60156 186.5 C 338.61894 188.80902 335.14734 190.38151 333.18555 191.21484 L 335.66016 199.96484 C 336.37196 199.68707 336.98698 199.48676 337.50781 199.36523 C 338.49739 199.13954 339.14041 199.0013 339.43555 198.94922 C 339.57443 204.92142 339.66059 208.58334 339.69531 209.9375 C 339.8342 214.55555 339.88628 219.54753 339.85156 224.91211 L 351.44141 224.91211 C 351.52821 215.242 351.61437 208.15059 351.70117 203.63672 C 351.94423 194.5916 352.12652 188.29752 352.24805 184.75586 L 349.72266 183.32422 z M 728.55859 183.32422 C 728.47179 192.99433 728.38563 200.08573 728.29883 204.59961 C 728.05577 213.64472 727.87348 219.93881 727.75195 223.48047 L 730.27734 224.91211 C 732.81206 223.54058 734.85136 222.48089 736.39648 221.73438 C 741.37911 219.42535 744.85266 217.85482 746.81445 217.02148 L 744.33984 208.27148 C 743.62804 208.54926 743.01107 208.74957 742.49023 208.87109 C 741.50066 209.09679 740.85959 209.23503 740.56445 209.28711 C 740.42556 203.31491 740.33746 199.65103 740.30273 198.29688 C 740.16385 193.67883 740.11176 188.68878 740.14648 183.32422 L 728.55859 183.32422 z M 538.6543 187.5 C 531.64334 187.5 526 193.14334 526 200.1543 L 526 209.94727 C 517.4622 210.89585 509.71517 212.76052 502.79492 215.58398 C 492.37342 219.75258 484.41075 225.75483 478.9082 233.5918 C 473.40565 241.42876 470.6543 250.39246 470.6543 260.48047 C 470.6543 271.06871 473.23914 279.9472 478.4082 287.11719 C 483.66064 294.20381 490.70554 299.8314 499.54297 304 C 506.89154 307.36523 515.76615 310.37225 526 313.05859 L 526 370.09766 C 523.66878 369.50703 521.55815 368.73544 519.67773 367.7793 C 514.75879 365.19477 510.92315 361.94387 508.17188 358.02539 C 505.50397 354.10691 503.00434 349.22862 500.66992 343.39258 C 498.75237 338.47363 496.41729 334.76483 493.66602 332.26367 C 490.99811 329.76251 487.70559 328.51172 483.78711 328.51172 C 478.95153 328.51172 474.94939 330.13716 471.78125 333.38867 C 468.69649 336.55681 467.1543 340.39244 467.1543 344.89453 C 467.1543 352.64813 469.73719 360.65047 474.90625 368.9043 C 480.15868 377.07475 486.95382 383.62012 495.29102 388.53906 C 503.84306 393.51259 514.09449 396.65251 526 398.00781 L 526 407.8457 C 526 414.85666 531.64334 420.5 538.6543 420.5 L 541.3457 420.5 C 548.35666 420.5 554 414.85666 554 407.8457 L 554 397.98438 C 563.33199 396.8915 571.74853 394.68036 579.20508 391.29102 C 590.21018 386.2887 598.5475 379.36868 604.2168 370.53125 C 609.96946 361.69382 612.8457 351.73105 612.8457 340.64258 C 612.8457 331.38829 611.17863 323.59213 607.84375 317.25586 C 604.59224 310.83622 600.0073 305.54165 594.08789 301.37305 C 588.25185 297.20445 581.1237 293.66216 572.70312 290.74414 C 566.95577 288.73257 560.69824 286.84807 554 285.07422 L 554 238.25586 C 556.15498 239.12174 558.03328 240.17906 559.57227 241.4707 C 564.2411 245.30581 568.24129 250.68364 571.57617 257.60352 C 574.1607 262.43909 576.53741 265.9417 578.70508 268.10938 C 580.95612 270.19367 584.20701 271.23438 588.45898 271.23438 C 593.12782 271.23438 597.00508 269.48405 600.08984 265.98242 C 603.25798 262.39743 604.8418 258.39528 604.8418 253.97656 C 604.8418 249.14099 603.591 244.18139 601.08984 239.0957 C 598.58868 234.01001 594.63012 229.17335 589.21094 224.58789 C 583.79176 219.91906 576.955 216.21026 568.70117 213.45898 C 564.26152 211.9187 559.35046 210.81075 554 210.10742 L 554 200.1543 C 554 193.14334 548.35666 187.5 541.3457 187.5 L 538.6543 187.5 z M 526 236.73438 L 526 277.67969 C 522.7329 276.62386 519.49836 275.23738 516.30078 273.48633 C 512.79916 271.56877 510.0478 269.27533 508.04688 266.60742 C 506.04595 263.93952 505.04688 260.77188 505.04688 257.10352 C 505.04688 251.1841 507.96474 246.1393 513.80078 241.9707 C 517.24123 239.4994 521.32034 237.76932 526 236.73438 z M 345.8418 255.97266 C 338.83084 255.97266 333.18555 261.61601 333.18555 268.62695 L 333.18555 280.08789 C 333.18555 287.09884 338.83084 292.74219 345.8418 292.74219 L 432.25391 292.74219 C 439.26485 292.74219 444.9082 287.09884 444.9082 280.08789 L 444.9082 268.62695 C 444.9082 261.61601 439.26485 255.97266 432.25391 255.97266 L 345.8418 255.97266 z M 647.74609 255.97266 C 640.73514 255.97266 635.0918 261.61601 635.0918 268.62695 L 635.0918 347.96875 C 635.0918 354.9797 640.73514 360.625 647.74609 360.625 L 663.44922 360.625 C 670.46017 360.625 676.10352 354.9797 676.10352 347.96875 L 676.10352 268.62695 C 676.10352 261.61601 670.46017 255.97266 663.44922 255.97266 L 647.74609 255.97266 z M 718.45703 255.97266 C 711.44608 255.97266 705.80273 261.61601 705.80273 268.62695 L 705.80273 347.96875 C 705.80273 354.9797 711.44608 360.625 718.45703 360.625 L 734.1582 360.625 C 741.16915 360.625 746.81445 354.9797 746.81445 347.96875 L 746.81445 268.62695 C 746.81445 261.61601 741.16915 255.97266 734.1582 255.97266 L 718.45703 255.97266 z M 554 320.42969 C 554.72735 320.6641 555.52134 320.90174 556.19531 321.13281 C 562.11472 323.13374 566.9078 326.05161 570.57617 329.88672 C 574.32791 333.63846 576.20508 338.55838 576.20508 344.64453 C 576.20508 352.31475 572.74409 358.73328 565.82422 363.90234 C 562.40448 366.44629 558.46279 368.35553 554 369.62695 L 554 320.42969 z M 345.8418 323.85547 C 338.83084 323.85547 333.18555 329.49881 333.18555 336.50977 L 333.18555 347.96875 C 333.18555 354.9797 338.83084 360.625 345.8418 360.625 L 432.25391 360.625 C 439.26485 360.625 444.9082 354.9797 444.9082 347.96875 L 444.9082 336.50977 C 444.9082 329.49881 439.26485 323.85547 432.25391 323.85547 L 345.8418 323.85547 z M 333.99219 386.9707 C 333.90539 396.64082 333.81923 403.73222 333.73242 408.24609 C 333.48937 417.29121 333.30707 423.5853 333.18555 427.12695 L 335.71094 428.55859 C 338.24565 427.18708 340.28689 426.12739 341.83203 425.38086 C 346.81466 423.07184 350.28624 421.5013 352.24805 420.66797 L 349.77344 411.91797 C 349.06163 412.19575 348.44661 412.39605 347.92578 412.51758 C 346.9362 412.74327 346.29318 412.88151 345.99805 412.93359 C 345.85916 406.96139 345.773 403.29752 345.73828 401.94336 C 345.59939 397.32531 345.54731 392.33528 345.58203 386.9707 L 333.99219 386.9707 z M 744.28711 386.9707 C 741.75239 388.34223 739.7131 389.39997 738.16797 390.14648 C 733.18534 392.45551 729.71375 394.028 727.75195 394.86133 L 730.22461 403.61133 C 730.93641 403.33355 731.55339 403.13325 732.07422 403.01172 C 733.0638 402.78602 733.70681 402.64779 734.00195 402.5957 C 734.14084 408.56792 734.227 412.22983 734.26172 413.58398 C 734.40061 418.20203 734.45269 423.19403 734.41797 428.55859 L 746.00586 428.55859 C 746.09266 418.88848 746.18077 411.79708 746.26758 407.2832 C 746.51063 398.23809 746.69292 391.944 746.81445 388.40234 L 744.28711 386.9707 z M 654.35938 492.21094 C 651.94569 492.21094 649.53308 493.18534 647.68359 495.13086 L 644.24805 498.74219 C 640.54907 502.63322 640.54907 508.89803 644.24805 512.78906 L 668.10352 537.88281 L 383.69922 537.88281 C 378.06066 537.88281 373.51953 542.42394 373.51953 548.0625 L 373.51953 556.6582 C 373.51953 562.29676 378.06066 566.83594 383.69922 566.83594 L 664.7207 566.83594 L 642.78516 587.68945 C 638.89412 591.38843 638.89412 597.34399 642.78516 601.04297 L 646.39648 604.47656 C 650.28752 608.17554 656.55233 608.17554 660.44336 604.47656 L 701.67969 565.27734 C 704.55713 563.48301 706.48047 560.31299 706.48047 556.6582 L 706.48047 548.0625 C 706.48047 544.91236 705.03261 542.13948 702.79883 540.27539 C 702.33756 539.01437 701.62805 537.8288 700.6582 536.80859 L 661.03711 495.13086 C 659.18762 493.18534 656.77306 492.21094 654.35938 492.21094 z " />
    <text
       xml:space="preserve"
       style="fill:#000000;fill-opacity:1;stroke-width:1.7"
       x="731.22485"
       y="197.37956"
       id="text58"><tspan
         sodipodi:role="line"
         id="tspan58"
         x="731.22485"
         y="197.37956" /></text>
    <text
       xml:space="preserve"
       style="font-style:normal;font-variant:normal;font-weight:normal;font-stretch:normal;font-family:'Arial Rounded MT Bold';-inkscape-font-specification:'Arial Rounded MT Bold, ';fill:#000000;fill-opacity:1;stroke-width:1.7"
       x="682"
       y="251"
       id="text59"><tspan
         id="tspan59"
         x="682"
         y="251"
         sodipodi:role="line" /></text>
    <text
       xml:space="preserve"
       style="font-size:26.6667px;font-family:'Arial Rounded MT Bold';-inkscape-font-specification:'Arial Rounded MT Bold, ';fill:#000000;stroke-width:1.7"
       x="366.28131"
       y="398.80823"
       id="text4"><tspan
         sodipodi:role="line"
         id="tspan4"></tspan></text>
    <text
       xml:space="preserve"
       style="font-size:53.3333px;font-family:'Arial Rounded MT Bold';-inkscape-font-specification:'Arial Rounded MT Bold, ';fill:#000000;stroke-width:1.7"
       x="335.16861"
       y="407.29352"
       id="text5"><tspan
         sodipodi:role="line"
         id="tspan5"
         x="335.16861"
         y="407.29352"></tspan><tspan
         sodipodi:role="line"
         id="tspan6"
         x="335.16861"
         y="473.96014" /><tspan
         sodipodi:role="line"
         x="335.16861"
         y="540.62677"
         id="tspan7" /></text>
    <text
       xml:space="preserve"
       style="font-size:53.3333px;font-family:'Arial Rounded MT Bold';-inkscape-font-specification:'Arial Rounded MT Bold, ';fill:#000000;stroke-width:1.7"
       x="325.26913"
       y="429.92093"
       id="text8"><tspan
         sodipodi:role="line"
         id="tspan8"
         x="325.26913"
         y="429.92093" /></text>
    <text
       xml:space="preserve"
       id="text9"
       style="font-size:53.3333px;font-family:'Arial Rounded MT Bold';-inkscape-font-specification:'Arial Rounded MT Bold, ';white-space:pre;shape-inside:url(#rect9);display:inline;fill:#000000;stroke-width:1.7" />
  </g>
</svg>
