<?xml version="1.0" encoding="UTF-8" standalone="no"?>
<!-- Created with Inkscape (http://www.inkscape.org/) -->

<svg
   width="608"
   height="608"
   viewBox="0 0 608 608"
   version="1.1"
   id="svg1"
   inkscape:version="1.3 (0e150ed6c4, 2023-07-21)"
   sodipodi:docname="Focus.svg"
   inkscape:export-filename="Focus.png"
   inkscape:export-xdpi="94.736839"
   inkscape:export-ydpi="94.736839"
   xmlns:inkscape="http://www.inkscape.org/namespaces/inkscape"
   xmlns:sodipodi="http://sodipodi.sourceforge.net/DTD/sodipodi-0.dtd"
   xmlns="http://www.w3.org/2000/svg"
   xmlns:svg="http://www.w3.org/2000/svg">
  <sodipodi:namedview
     id="namedview1"
     pagecolor="#000000"
     bordercolor="#ffffff"
     borderopacity="0"
     inkscape:showpageshadow="0"
     inkscape:pageopacity="0"
     inkscape:pagecheckerboard="1"
     inkscape:deskcolor="#d1d1d1"
     inkscape:document-units="px"
     inkscape:zoom="0.3296558"
     inkscape:cx="219.92636"
     inkscape:cy="116.78848"
     inkscape:window-width="1920"
     inkscape:window-height="991"
     inkscape:window-x="-9"
     inkscape:window-y="-9"
     inkscape:window-maximized="1"
     inkscape:current-layer="layer1" />
  <defs
     id="defs1">
    <inkscape:path-effect
       effect="fillet_chamfer"
       id="path-effect2"
       is_visible="true"
       lpeversion="1"
       nodesatellites_param="F,0,1,1,0,10.675356,0,1 @ F,0,1,1,0,10.675356,0,1 @ F,0,1,1,0,10.675356,0,1 @ F,0,1,1,0,10.675356,0,1 @ F,0,1,1,0,10.675356,0,1 @ F,0,1,1,0,10.675356,0,1 @ F,0,0,1,0,10.675356,0,1 @ F,0,1,1,0,10.675356,0,1 @ F,0,1,1,0,10.675356,0,1 @ F,0,1,1,0,10.675356,0,1 @ F,0,1,1,0,10.675356,0,1 @ F,0,1,1,0,10.675356,0,1 @ F,0,1,1,0,10.675356,0,1 @ F,0,1,1,0,10.675356,0,1 @ F,0,1,1,0,10.675356,0,1 @ F,0,1,1,0,10.675356,0,1 @ F,0,1,1,0,10.675356,0,1 @ F,0,1,1,0,10.675356,0,1 @ F,0,1,1,0,10.675356,0,1 @ F,0,1,1,0,10.675356,0,1 @ F,0,1,1,0,10.675356,0,1 @ F,0,1,1,0,10.675356,0,1 @ F,0,1,1,0,10.675356,0,1 @ F,0,1,1,0,10.675356,0,1 @ F,0,1,1,0,10.675356,0,1 @ F,0,1,1,0,10.675356,0,1 @ F,0,1,1,0,10.675356,0,1 @ F,0,1,1,0,10.675356,0,1 @ F,0,1,1,0,10.675356,0,1 @ F,0,1,1,0,10.675356,0,1 @ F,0,1,1,0,10.675356,0,1 @ F,0,1,1,0,10.675356,0,1 @ F,0,1,1,0,10.675356,0,1 @ F,0,1,1,0,10.675356,0,1 @ F,0,1,1,0,10.675356,0,1 @ F,0,1,1,0,10.675356,0,1 @ F,0,1,1,0,10.675356,0,1 @ F,0,1,1,0,10.675356,0,1 @ F,0,1,1,0,10.675356,0,1 @ F,0,1,1,0,10.675356,0,1"
       radius="0"
       unit="px"
       method="auto"
       mode="F"
       chamfer_steps="1"
       flexible="false"
       use_knot_distance="true"
       apply_no_radius="true"
       apply_with_radius="true"
       only_selected="false"
       hide_knots="false" />
  </defs>
  <g
     inkscape:label="Layer 1"
     inkscape:groupmode="layer"
     id="layer1">
    <path
       id="path1"
       style="fill:#ffffff;fill-opacity:1;stroke-width:1.7"
       d="m 298.70165,4.1814298 a 11.792427,11.792427 0 0 0 -7.88477,3.1230469 L 263.9204,32.11307 a 16.342484,16.342484 0 0 1 -17.62891,2.960938 L 214.8579,21.327914 a 11.792428,11.792428 0 0 0 -15.00781,5.03125 l -17.91211,31.90625 a 16.342483,16.342483 0 0 1 -15.85157,8.263672 l -34.14257,-3.359375 a 11.792427,11.792427 0 0 0 -12.71875,9.423828 l -7.17774,35.878911 a 16.342483,16.342483 0 0 1 -12.519535,12.75781 l -33.50977,7.35547 a 11.792429,11.792429 0 0 0 -9.18554,12.89063 l 4.26172,36.34179 a 16.342484,16.342484 0 0 1 -7.96485,16.00196 l -29.59765,17.35156 a 11.792428,11.792428 0 0 0 -4.75,15.09766 l 15.2832,33.24804 a 16.342482,16.342482 0 0 1 -2.63281,17.67969 L 8.6469551,302.84354 a 11.792427,11.792427 0 0 0 0.14649,15.82813 l 24.8085899,26.89648 a 16.342482,16.342482 0 0 1 2.96094,17.62891 l -13.7461,31.43359 a 11.792426,11.792426 0 0 0 5.03125,15.00782 l 31.90625,17.91211 a 16.342482,16.342482 0 0 1 8.26367,15.85156 l -3.35937,34.14258 a 11.792426,11.792426 0 0 0 9.42383,12.71875 l 35.878905,7.17773 a 16.342479,16.342479 0 0 1 12.75782,12.51953 l 7.35547,33.50977 a 11.792425,11.792425 0 0 0 12.89062,9.18554 l 36.3418,-4.26171 a 16.342481,16.342481 0 0 1 16.00195,7.96484 l 17.35156,29.59766 a 11.792427,11.792427 0 0 0 15.09766,4.75 l 33.24805,-15.28321 a 16.342483,16.342483 0 0 1 17.67968,2.63281 l 25.64649,22.78516 a 11.792428,11.792428 0 0 0 15.82812,-0.14648 l 26.89649,-24.8086 a 16.34248,16.34248 0 0 1 17.6289,-2.96093 l 31.4336,13.74609 a 11.792425,11.792425 0 0 0 15.00781,-5.03125 l 17.91211,-31.90625 a 16.342482,16.342482 0 0 1 15.85156,-8.26367 l 34.14258,3.35937 a 11.792429,11.792429 0 0 0 12.71875,-9.42383 l 7.17773,-35.8789 a 16.342487,16.342487 0 0 1 12.51954,-12.75781 l 33.50976,-7.35547 a 11.792429,11.792429 0 0 0 9.18555,-12.89063 l -4.26172,-36.3418 a 16.342483,16.342483 0 0 1 7.96484,-16.00195 l 29.59766,-17.35156 a 11.792427,11.792427 0 0 0 4.75,-15.09766 l -15.2832,-33.24804 a 16.342485,16.342485 0 0 1 2.63281,-17.67969 l 22.78515,-25.64649 a 11.792428,11.792428 0 0 0 -0.14648,-15.82812 l -24.80859,-26.89649 a 16.342485,16.342485 0 0 1 -2.96094,-17.6289 l 13.74609,-31.4336 a 11.792429,11.792429 0 0 0 -5.03125,-15.00781 l -31.90625,-17.91211 a 16.342484,16.342484 0 0 1 -8.26367,-15.85156 l 3.35938,-34.14258 a 11.792428,11.792428 0 0 0 -9.42383,-12.71875 L 501.0161,110.55838 A 16.342485,16.342485 0 0 1 488.25829,98.038852 L 480.90282,64.529086 A 11.792428,11.792428 0 0 0 468.0122,55.343539 l -36.3418,4.261719 A 16.342484,16.342484 0 0 1 415.66845,51.640414 L 398.31688,22.042758 a 11.792429,11.792429 0 0 0 -15.09765,-4.75 L 349.97118,32.575961 A 16.342482,16.342482 0 0 1 332.29149,29.943148 L 306.64501,7.1579923 a 11.792427,11.792427 0 0 0 -7.94336,-2.9765625 z m 5.29883,65.5996092 A 232.73088,232.73088 0 0 1 536.73095,302.51151 232.73088,232.73088 0 0 1 304.00048,535.24198 232.73088,232.73088 0 0 1 71.270005,302.51151 232.73088,232.73088 0 0 1 304.00048,69.781039 Z" />
    <circle
       style="fill:#ffffff;fill-opacity:1;stroke-width:1.99414"
       id="path3"
       cx="304"
       cy="304"
       r="214.49852" />
  </g>
</svg>
