<?xml version="1.0" encoding="UTF-8" standalone="no"?>
<!-- Created with Inkscape (http://www.inkscape.org/) -->

<svg
   width="1080"
   height="608"
   viewBox="0 0 1080 608"
   version="1.1"
   id="svg1"
   inkscape:version="1.3 (0e150ed6c4, 2023-07-21)"
   sodipodi:docname="FocusLight.svg"
   xmlns:inkscape="http://www.inkscape.org/namespaces/inkscape"
   xmlns:sodipodi="http://sodipodi.sourceforge.net/DTD/sodipodi-0.dtd"
   xmlns="http://www.w3.org/2000/svg"
   xmlns:svg="http://www.w3.org/2000/svg">
  <sodipodi:namedview
     id="namedview1"
     pagecolor="#ffffff"
     bordercolor="#111111"
     borderopacity="1"
     inkscape:showpageshadow="0"
     inkscape:pageopacity="0"
     inkscape:pagecheckerboard="1"
     inkscape:deskcolor="#d1d1d1"
     inkscape:document-units="px"
     inkscape:zoom="0.3296558"
     inkscape:cx="221.44309"
     inkscape:cy="116.78848"
     inkscape:window-width="1920"
     inkscape:window-height="991"
     inkscape:window-x="-9"
     inkscape:window-y="-9"
     inkscape:window-maximized="1"
     inkscape:current-layer="layer1" />
  <defs
     id="defs1">
    <inkscape:path-effect
       effect="fillet_chamfer"
       id="path-effect2"
       is_visible="true"
       lpeversion="1"
       nodesatellites_param="F,0,1,1,0,10.675356,0,1 @ F,0,1,1,0,10.675356,0,1 @ F,0,1,1,0,10.675356,0,1 @ F,0,1,1,0,10.675356,0,1 @ F,0,1,1,0,10.675356,0,1 @ F,0,1,1,0,10.675356,0,1 @ F,0,0,1,0,10.675356,0,1 @ F,0,1,1,0,10.675356,0,1 @ F,0,1,1,0,10.675356,0,1 @ F,0,1,1,0,10.675356,0,1 @ F,0,1,1,0,10.675356,0,1 @ F,0,1,1,0,10.675356,0,1 @ F,0,1,1,0,10.675356,0,1 @ F,0,1,1,0,10.675356,0,1 @ F,0,1,1,0,10.675356,0,1 @ F,0,1,1,0,10.675356,0,1 @ F,0,1,1,0,10.675356,0,1 @ F,0,1,1,0,10.675356,0,1 @ F,0,1,1,0,10.675356,0,1 @ F,0,1,1,0,10.675356,0,1 @ F,0,1,1,0,10.675356,0,1 @ F,0,1,1,0,10.675356,0,1 @ F,0,1,1,0,10.675356,0,1 @ F,0,1,1,0,10.675356,0,1 @ F,0,1,1,0,10.675356,0,1 @ F,0,1,1,0,10.675356,0,1 @ F,0,1,1,0,10.675356,0,1 @ F,0,1,1,0,10.675356,0,1 @ F,0,1,1,0,10.675356,0,1 @ F,0,1,1,0,10.675356,0,1 @ F,0,1,1,0,10.675356,0,1 @ F,0,1,1,0,10.675356,0,1 @ F,0,1,1,0,10.675356,0,1 @ F,0,1,1,0,10.675356,0,1 @ F,0,1,1,0,10.675356,0,1 @ F,0,1,1,0,10.675356,0,1 @ F,0,1,1,0,10.675356,0,1 @ F,0,1,1,0,10.675356,0,1 @ F,0,1,1,0,10.675356,0,1 @ F,0,1,1,0,10.675356,0,1"
       radius="0"
       unit="px"
       method="auto"
       mode="F"
       chamfer_steps="1"
       flexible="false"
       use_knot_distance="true"
       apply_no_radius="true"
       apply_with_radius="true"
       only_selected="false"
       hide_knots="false" />
  </defs>
  <g
     inkscape:label="Layer 1"
     inkscape:groupmode="layer"
     id="layer1">
    <path
       id="path1"
       style="stroke-width:1.7"
       d="M 527.10309 -7.0887754 A 11.792427 11.792427 0 0 0 519.21832 -3.9657285 L 492.32184 20.842865 A 16.342484 16.342484 0 0 1 474.69293 23.803803 L 443.25934 10.057709 A 11.792428 11.792428 0 0 0 428.25153 15.088959 L 410.33942 46.995209 A 16.342483 16.342483 0 0 1 394.48785 55.258881 L 360.34528 51.899506 A 11.792427 11.792427 0 0 0 347.62653 61.323334 L 340.44879 97.20224 A 16.342483 16.342483 0 0 1 327.92926 109.96005 L 294.41949 117.31552 A 11.792429 11.792429 0 0 0 285.23395 130.20615 L 289.49567 166.54794 A 16.342484 16.342484 0 0 1 281.53082 182.5499 L 251.93317 199.90146 A 11.792428 11.792428 0 0 0 247.18317 214.99912 L 262.46637 248.24716 A 16.342482 16.342482 0 0 1 259.83356 265.92685 L 237.0484 291.57333 A 11.792427 11.792427 0 0 0 237.19489 307.40146 L 262.00348 334.29794 A 16.342482 16.342482 0 0 1 264.96442 351.92685 L 251.21832 383.36044 A 11.792426 11.792426 0 0 0 256.24957 398.36826 L 288.15582 416.28037 A 16.342482 16.342482 0 0 1 296.41949 432.13193 L 293.06012 466.27451 A 11.792426 11.792426 0 0 0 302.48395 478.99326 L 338.36285 486.17099 A 16.342479 16.342479 0 0 1 351.12067 498.69052 L 358.47614 532.20029 A 11.792425 11.792425 0 0 0 371.36676 541.38583 L 407.70856 537.12412 A 16.342481 16.342481 0 0 1 423.71051 545.08896 L 441.06207 574.68662 A 11.792427 11.792427 0 0 0 456.15973 579.43662 L 489.40778 564.15341 A 16.342483 16.342483 0 0 1 507.08746 566.78622 L 532.73395 589.57138 A 11.792428 11.792428 0 0 0 548.56207 589.4249 L 575.45856 564.6163 A 16.34248 16.34248 0 0 1 593.08746 561.65537 L 624.52106 575.40146 A 11.792425 11.792425 0 0 0 639.52887 570.37021 L 657.44098 538.46396 A 16.342482 16.342482 0 0 1 673.29254 530.20029 L 707.43512 533.55966 A 11.792429 11.792429 0 0 0 720.15387 524.13583 L 727.3316 488.25693 A 16.342487 16.342487 0 0 1 739.85114 475.49912 L 773.3609 468.14365 A 11.792429 11.792429 0 0 0 782.54645 455.25302 L 778.28473 418.91122 A 16.342483 16.342483 0 0 1 786.24957 402.90927 L 815.84723 385.55771 A 11.792427 11.792427 0 0 0 820.59723 370.46005 L 805.31403 337.21201 A 16.342485 16.342485 0 0 1 807.94684 319.53232 L 830.73199 293.88583 A 11.792428 11.792428 0 0 0 830.58551 278.05771 L 805.77692 251.16122 A 16.342485 16.342485 0 0 1 802.81598 233.53232 L 816.56207 202.09872 A 11.792429 11.792429 0 0 0 811.53082 187.09091 L 779.62457 169.1788 A 16.342484 16.342484 0 0 1 771.3609 153.32724 L 774.72028 119.18466 A 11.792428 11.792428 0 0 0 765.29645 106.46591 L 729.41754 99.288178 A 16.342485 16.342485 0 0 1 716.65973 86.768647 L 709.30426 53.258881 A 11.792428 11.792428 0 0 0 696.41364 44.073334 L 660.07184 48.335053 A 16.342484 16.342484 0 0 1 644.06989 40.370209 L 626.71832 10.772553 A 11.792429 11.792429 0 0 0 611.62067 6.0225527 L 578.37262 21.305756 A 16.342482 16.342482 0 0 1 560.69293 18.672943 L 535.04645 -4.1122129 A 11.792427 11.792427 0 0 0 527.10309 -7.0887754 z M 532.40192 58.510834 A 232.73088 232.73088 0 0 1 765.13239 291.2413 A 232.73088 232.73088 0 0 1 532.40192 523.97177 A 232.73088 232.73088 0 0 1 299.67145 291.2413 A 232.73088 232.73088 0 0 1 532.40192 58.510834 z "
       transform="translate(6.1098022,11.270416)" />
    <circle
       style="fill:#000000;fill-opacity:1;stroke-width:1.99414"
       id="path3"
       cx="540"
       cy="304"
       r="214.49852" />
  </g>
</svg>
