<?xml version="1.0" encoding="UTF-8" standalone="no"?>
<!-- Created with Inkscape (http://www.inkscape.org/) -->

<svg
   width="608"
   height="608"
   viewBox="0 0 608 608"
   version="1.1"
   id="svg1"
   sodipodi:docname="TodoLight.svg"
   inkscape:version="1.3 (0e150ed6c4, 2023-07-21)"
   xmlns:inkscape="http://www.inkscape.org/namespaces/inkscape"
   xmlns:sodipodi="http://sodipodi.sourceforge.net/DTD/sodipodi-0.dtd"
   xmlns="http://www.w3.org/2000/svg"
   xmlns:svg="http://www.w3.org/2000/svg">
  <sodipodi:namedview
     id="namedview1"
     pagecolor="#ffffff"
     bordercolor="#111111"
     borderopacity="1"
     inkscape:showpageshadow="0"
     inkscape:pageopacity="0"
     inkscape:pagecheckerboard="1"
     inkscape:deskcolor="#d1d1d1"
     inkscape:document-units="px"
     inkscape:zoom="0.48890572"
     inkscape:cx="394.75914"
     inkscape:cy="440.78028"
     inkscape:window-width="1920"
     inkscape:window-height="991"
     inkscape:window-x="-9"
     inkscape:window-y="-9"
     inkscape:window-maximized="1"
     inkscape:current-layer="layer1" />
  <defs
     id="defs1">
    <inkscape:path-effect
       effect="fillet_chamfer"
       id="path-effect36"
       is_visible="true"
       lpeversion="1"
       nodesatellites_param="F,0,1,1,0,47.149545,0,1 @ F,0,0,1,0,47.149545,0,1 @ F,0,1,1,0,47.149545,0,1 @ F,0,1,1,0,47.149545,0,1"
       radius="0"
       unit="px"
       method="auto"
       mode="F"
       chamfer_steps="1"
       flexible="false"
       use_knot_distance="true"
       apply_no_radius="true"
       apply_with_radius="true"
       only_selected="false"
       hide_knots="false" />
    <inkscape:path-effect
       effect="fillet_chamfer"
       id="path-effect34"
       is_visible="true"
       lpeversion="1"
       nodesatellites_param="F,0,1,1,0,47.149545,0,1 @ F,0,0,1,0,47.149545,0,1 @ F,0,1,1,0,47.149545,0,1 @ F,0,1,1,0,47.149545,0,1"
       radius="0"
       unit="px"
       method="auto"
       mode="F"
       chamfer_steps="1"
       flexible="false"
       use_knot_distance="true"
       apply_no_radius="true"
       apply_with_radius="true"
       only_selected="false"
       hide_knots="false" />
    <inkscape:path-effect
       effect="fillet_chamfer"
       id="path-effect33"
       is_visible="true"
       lpeversion="1"
       nodesatellites_param="F,0,0,1,0,0,0,1 @ F,0,0,1,0,0,0,1 @ F,0,0,1,0,0,0,1 @ F,0,0,1,0,0,0,1"
       radius="0"
       unit="px"
       method="auto"
       mode="F"
       chamfer_steps="1"
       flexible="false"
       use_knot_distance="true"
       apply_no_radius="true"
       apply_with_radius="true"
       only_selected="false"
       hide_knots="false" />
    <inkscape:path-effect
       effect="fillet_chamfer"
       id="path-effect31"
       is_visible="true"
       lpeversion="1"
       nodesatellites_param="F,0,0,1,0,0,0,1 @ F,0,0,1,0,0,0,1 @ F,0,0,1,0,0,0,1 @ F,0,0,1,0,0,0,1 @ F,0,0,1,0,0,0,1 @ F,0,0,1,0,0,0,1"
       radius="0"
       unit="px"
       method="auto"
       mode="F"
       chamfer_steps="1"
       flexible="false"
       use_knot_distance="true"
       apply_no_radius="true"
       apply_with_radius="true"
       only_selected="false"
       hide_knots="false" />
    <inkscape:path-effect
       effect="fillet_chamfer"
       id="path-effect29"
       is_visible="true"
       lpeversion="1"
       nodesatellites_param="F,0,0,1,0,0,0,1 @ F,0,0,1,0,0,0,1 @ F,0,0,1,0,0,0,1 @ F,0,0,1,0,0,0,1 @ F,0,0,1,0,0,0,1 @ F,0,0,1,0,0,0,1"
       radius="0"
       unit="px"
       method="auto"
       mode="F"
       chamfer_steps="1"
       flexible="false"
       use_knot_distance="true"
       apply_no_radius="true"
       apply_with_radius="true"
       only_selected="false"
       hide_knots="false" />
    <inkscape:path-effect
       effect="fillet_chamfer"
       id="path-effect8"
       is_visible="true"
       lpeversion="1"
       nodesatellites_param="F,0,0,1,0,0,0,1 @ F,0,0,1,0,0,0,1 @ F,0,0,1,0,0,0,1 @ F,0,0,1,0,0,0,1 @ F,0,0,1,0,0,0,1 @ F,0,0,1,0,0,0,1 @ F,0,0,1,0,0,0,1 @ F,0,0,1,0,0,0,1 @ F,0,0,1,0,0,0,1 @ F,0,0,1,0,0,0,1 @ IF,0,0,1,0,0,0,1 | F,0,0,1,0,0,0,1 @ F,0,0,1,0,0,0,1 @ F,0,0,1,0,0,0,1 @ F,0,0,1,0,0.00019,0,1"
       radius="0"
       unit="px"
       method="auto"
       mode="F"
       chamfer_steps="1"
       flexible="false"
       use_knot_distance="true"
       apply_no_radius="true"
       apply_with_radius="true"
       only_selected="false"
       hide_knots="false" />
  </defs>
  <g
     inkscape:label="Layer 1"
     inkscape:groupmode="layer"
     id="layer1">
    <path
       id="rect32"
       style="fill:#000000;fill-opacity:1;stroke-width:1.69189"
       d="M 105.27734,3.1679694 A 47.149545,47.149545 0 0 0 58.12891,50.31836 v 507.36328 a 47.149545,47.149545 0 0 0 47.14843,47.15039 h 397.44532 a 47.149545,47.149545 0 0 0 47.14843,-47.15039 V 50.31836 A 47.149545,47.149545 0 0 0 502.72266,3.1679694 Z m 22.1543,33.5371096 h 353.13672 a 41.893224,41.893224 0 0 1 41.89258,41.894531 v 450.80078 a 41.893224,41.893224 0 0 1 -41.89258,41.89453 H 127.43164 A 41.893224,41.893224 0 0 1 85.53906,529.40039 V 78.59961 a 41.893224,41.893224 0 0 1 41.89258,-41.894531 z m 14.42774,29.824219 c -10.62321,0 -19.17579,8.552578 -19.17579,19.175781 v 0.699219 c 0,10.623203 8.55258,19.175782 19.17579,19.175782 h 328.2832 c 10.6232,0 19.17578,-8.552579 19.17578,-19.175782 v -0.699219 c 0,-10.623203 -8.55258,-19.175781 -19.17578,-19.175781 z m 335.71484,64.398432 c -2.8532,0.1329 -5.68067,1.22637 -7.97266,3.30469 l -45.04687,40.84961 -21.6875,-21.27344 c -4.47573,-4.39003 -11.28235,-4.02418 -15.26172,0.82032 -3.97937,4.8445 -3.57925,12.27988 0.89648,16.66992 l 27.13086,26.61133 c 0.42884,0.42063 0.88446,0.78363 1.35157,1.11718 0.0248,0.0279 0.0452,0.0582 0.0703,0.0859 4.74469,5.24404 12.78266,5.64108 18.02148,0.89063 l 51.6543,-46.83985 c 5.23882,-4.75045 5.63727,-12.79698 0.89258,-18.04101 -2.66889,-2.94977 -6.38043,-4.36618 -10.04883,-4.19532 z m -337.15625,13.08594 c -10.6232,0 -19.17578,8.55258 -19.17578,19.17578 v 0.69922 c 0,10.6232 8.55258,19.17578 19.17578,19.17578 h 206.87109 c 10.62321,0 19.17383,-8.55258 19.17383,-19.17578 v -0.69922 c 0,-10.6232 -8.55062,-19.17578 -19.17383,-19.17578 z m 0,79.54688 c -10.6232,0 -19.17578,8.55258 -19.17578,19.17578 v 0.69922 c 0,10.6232 8.55258,19.17578 19.17578,19.17578 h 234.19531 c 10.6232,0 19.17578,-8.55258 19.17578,-19.17578 v -0.69922 c 0,-10.6232 -8.55258,-19.17578 -19.17578,-19.17578 z m 285.81836,37.86133 c -3.23973,0 -6.47849,1.24216 -8.96094,3.7246 -4.96489,4.9649 -4.96489,12.95894 0,17.92383 l 15.71875,15.71875 -15.71875,15.72071 c -4.96489,4.96489 -4.96489,12.95893 0,17.92382 4.9649,4.9649 12.95893,4.9649 17.92383,0 l 15.71875,-15.71875 15.71875,15.71875 c 4.96489,4.9649 12.95893,4.9649 17.92383,0 4.96489,-4.96489 4.96489,-12.95893 0,-17.92382 l -15.71875,-15.72071 15.71875,-15.71875 c 4.96489,-4.96489 4.96489,-12.95893 0,-17.92383 -4.9649,-4.96489 -12.95894,-4.96489 -17.92383,0 l -15.71875,15.71875 -15.71875,-15.71875 c -2.48245,-2.48244 -5.72316,-3.7246 -8.96289,-3.7246 z m -285.81836,53.25585 c -10.6232,0 -19.17578,8.55258 -19.17578,19.17579 v 0.69921 c 0,10.62321 8.55258,19.17579 19.17578,19.17579 h 213.74219 c 10.6232,0 19.17578,-8.55258 19.17578,-19.17579 v -0.69921 c 0,-10.62321 -8.55258,-19.17579 -19.17578,-19.17579 z m 285.81836,64.86524 c -3.23973,0 -6.47849,1.24216 -8.96094,3.72461 -4.96489,4.96489 -4.96489,12.95893 0,17.92383 l 15.71875,15.71875 -15.71875,15.7207 c -4.96489,4.96489 -4.96489,12.95698 0,17.92187 4.9649,4.9649 12.95893,4.9649 17.92383,0 l 15.71875,-15.71875 15.71875,15.72071 c 4.96489,4.96489 12.95893,4.96489 17.92383,0 4.96489,-4.9649 4.96489,-12.95894 0,-17.92383 l -15.71875,-15.7207 15.71875,-15.71875 c 4.96489,-4.9649 4.96489,-12.95894 0,-17.92383 -4.9649,-4.9649 -12.95894,-4.9649 -17.92383,0 l -15.71875,15.71875 -15.71875,-15.71875 c -2.48245,-2.48245 -5.72316,-3.72461 -8.96289,-3.72461 z m -285.81836,20.4668 c -10.6232,0 -19.17578,8.55257 -19.17578,19.17578 v 0.69922 c 0,10.6232 8.55258,19.17578 19.17578,19.17578 h 234.19531 c 10.6232,0 19.17578,-8.55258 19.17578,-19.17578 v -0.69922 c 0,-10.62321 -8.55258,-19.17578 -19.17578,-19.17578 z m 0,83.88671 c -10.6232,0 -19.17578,8.55063 -19.17578,19.17383 v 0.69922 c 0,10.6232 8.55258,19.17578 19.17578,19.17578 h 332.54492 c 10.6232,0 19.17578,-8.55258 19.17578,-19.17578 v -0.69922 c 0,-10.6232 -8.55258,-19.17383 -19.17578,-19.17383 z" />
  </g>
</svg>
